<?xml version="1.0" encoding="UTF-8" standalone="no"?>
<!-- Created with Inkscape (http://www.inkscape.org/) -->

<svg
   width="18.502289"
   height="35.96339"
   viewBox="0 0 6.1674295 11.987797"
   version="1.1"
   id="svg1"
   inkscape:version="1.3 (0e150ed6c4, 2023-07-21)"
   sodipodi:docname="web-9de9-v01.svg"
   xmlns:inkscape="http://www.inkscape.org/namespaces/inkscape"
   xmlns:sodipodi="http://sodipodi.sourceforge.net/DTD/sodipodi-0.dtd"
   xmlns="http://www.w3.org/2000/svg"
   xmlns:svg="http://www.w3.org/2000/svg">
  <sodipodi:namedview
     id="namedview1"
     pagecolor="#ffffff"
     bordercolor="#000000"
     borderopacity="0.25"
     inkscape:showpageshadow="2"
     inkscape:pageopacity="0.0"
     inkscape:pagecheckerboard="0"
     inkscape:deskcolor="#d1d1d1"
     inkscape:document-units="px"
     inkscape:zoom="1.0318224"
     inkscape:cx="524.79964"
     inkscape:cy="358.10428"
     inkscape:window-width="1920"
     inkscape:window-height="1016"
     inkscape:window-x="0"
     inkscape:window-y="28"
     inkscape:window-maximized="1"
     inkscape:current-layer="layer1" />
  <defs
     id="defs1" />
  <g
     inkscape:label="Capa 1"
     inkscape:groupmode="layer"
     id="layer1"
     transform="translate(115.96329,-8.726077)">
    <path
       id="path2"
       style="display:inline;fill:#6f7c91;fill-opacity:1;stroke:#535d6c;stroke-width:0.344617;stroke-linejoin:bevel;stroke-dasharray:none;stroke-opacity:1;paint-order:stroke fill markers"
       d="m -114.91408,8.899021 c -0.0304,0 -0.0604,0.0019 -0.0899,0.0045 -0.0295,0.0029 -0.0586,0.0074 -0.0872,0.01332 -0.0286,0.0059 -0.0566,0.01317 -0.084,0.02175 -0.0275,0.0085 -0.0544,0.01837 -0.0806,0.02952 -0.0263,0.01115 -0.0519,0.02359 -0.0767,0.03702 -0.0249,0.01348 -0.049,0.02818 -0.0723,0.0441 -0.0233,0.01569 -0.0458,0.03266 -0.0674,0.05047 -0.0217,0.01795 -0.0424,0.03702 -0.0622,0.05682 -0.0198,0.02 -0.0387,0.04094 -0.0565,0.06241 -0.0179,0.02183 -0.0347,0.04446 -0.0504,0.068 -0.0157,0.02333 -0.0303,0.0476 -0.0437,0.07268 -0.0135,0.02496 -0.0258,0.05059 -0.0368,0.077 -0.011,0.02643 -0.0209,0.05349 -0.0295,0.08099 -0.008,0.0277 -0.0157,0.05591 -0.0215,0.08473 -0.006,0.02861 -0.0102,0.0579 -0.0132,0.08754 -0.004,0.02971 -0.005,0.05986 -0.005,0.09043 v 4.48645 0 0.506434 c 0,0.03059 0.002,0.06054 0.005,0.09036 0.003,0.02968 0.007,0.059 0.0132,0.08769 0.006,0.02875 0.013,0.05702 0.0215,0.0847 0.008,0.02753 0.0185,0.05453 0.0295,0.08094 0.011,0.02635 0.0233,0.05213 0.0368,0.07708 0.0135,0.02495 0.028,0.04924 0.0437,0.07271 0.0157,0.02336 0.0326,0.0461 0.0504,0.06762 0.0178,0.02183 0.0367,0.04265 0.0565,0.06253 0.0198,0.01995 0.0405,0.03891 0.0622,0.05693 0.0216,0.01785 0.0441,0.03481 0.0674,0.05065 0.0233,0.01574 0.0474,0.03044 0.0723,0.04399 0.0248,0.01348 0.0504,0.02593 0.0767,0.03696 0.0262,0.01115 0.0531,0.0211 0.0806,0.02968 0.0275,0.0085 0.0555,0.01579 0.084,0.02164 0.0286,0.0057 0.0577,0.01007 0.0872,0.01332 0.0296,0.0036 0.0595,0.0043 0.0899,0.0043 h 1.06019 v 0 h 0.53588 c 0.0304,0 0.0599,0.0036 0.0886,0.009 0.0285,0.0057 0.0562,0.01456 0.0823,0.02557 0.0262,0.01115 0.0512,0.02466 0.0745,0.04059 0.0233,0.01582 0.045,0.03377 0.0648,0.0536 0.0198,0.02003 0.0377,0.04178 0.0533,0.06517 0.0158,0.02351 0.0293,0.04844 0.0403,0.07497 0.011,0.02635 0.0196,0.05395 0.0255,0.08278 0.006,0.02864 0.009,0.0584 0.009,0.08902 v 2.045605 c 0,0.03059 -0.004,0.06031 -0.009,0.08902 -0.006,0.02875 -0.0146,0.05643 -0.0255,0.08286 -0.011,0.02638 -0.0245,0.05138 -0.0403,0.07482 -0.0156,0.02354 -0.0335,0.04526 -0.0533,0.06522 -0.0198,0.01987 -0.0415,0.03798 -0.0648,0.0538 -0.0233,0.01574 -0.0484,0.02932 -0.0745,0.04045 -0.0261,0.01115 -0.0538,0.01972 -0.0823,0.02565 -0.0286,0.0059 -0.0582,0.009 -0.0886,0.009 h -0.53588 v 0 h -1.06031 c -0.0303,0 -0.0603,0.0019 -0.0899,0.0045 -0.0294,0.0026 -0.0586,0.0074 -0.0871,0.01317 -0.0285,0.0059 -0.0566,0.01301 -0.0841,0.02172 -0.0274,0.0085 -0.0545,0.0185 -0.0805,0.02952 -0.0264,0.01115 -0.0519,0.02352 -0.0768,0.03707 -0.0247,0.01348 -0.0488,0.02818 -0.0721,0.04399 -0.0233,0.01579 -0.0458,0.0327 -0.0675,0.05062 -0.0216,0.01795 -0.0423,0.03702 -0.0622,0.05682 -0.0198,0.01987 -0.0386,0.04077 -0.0564,0.06257 -0.0179,0.02175 -0.0346,0.04427 -0.0504,0.06782 -0.0157,0.02336 -0.0303,0.04766 -0.0438,0.07259 -0.0135,0.025 -0.0258,0.0507 -0.0368,0.07711 -0.011,0.0263 -0.0209,0.05346 -0.0294,0.08109 -0.008,0.02765 -0.0157,0.05572 -0.0215,0.08455 -0.006,0.02861 -0.0104,0.05794 -0.0132,0.08769 -0.004,0.02956 -0.005,0.05986 -0.005,0.09036 v 0.198155 c 0,0.03033 0.002,0.06035 0.005,0.08988 0.003,0.02971 0.007,0.05897 0.0132,0.08772 0.006,0.02864 0.013,0.05693 0.0215,0.08459 0.008,0.02753 0.0184,0.05461 0.0294,0.08106 0.011,0.02643 0.0234,0.05213 0.0368,0.07693 0.0135,0.02516 0.0281,0.04935 0.0438,0.07271 0.0157,0.02354 0.0325,0.0461 0.0504,0.06788 0.0178,0.02175 0.0367,0.04254 0.0565,0.06241 0.0198,0.02 0.0405,0.03899 0.0621,0.05693 0.0217,0.01788 0.0442,0.03484 0.0675,0.05059 0.0233,0.01585 0.0474,0.03056 0.0721,0.04407 0.025,0.01348 0.0505,0.02593 0.0767,0.03715 0.0262,0.011 0.0533,0.02087 0.0807,0.0294 0.0275,0.0085 0.0556,0.01574 0.0841,0.02167 0.0286,0.0057 0.0578,0.01022 0.0871,0.01332 0.0297,0.0036 0.0596,0.0045 0.0899,0.0045 h 4.06893 c 0.0303,0 0.0603,-0.0019 0.0899,-0.0045 0.0295,-0.0036 0.0586,-0.0074 0.0871,-0.01332 0.0286,-0.0059 0.0566,-0.01317 0.0841,-0.02167 0.0275,-0.0085 0.0544,-0.01842 0.0807,-0.0294 0.0262,-0.01115 0.0517,-0.0237 0.0766,-0.03715 0.0248,-0.01348 0.0489,-0.02822 0.0722,-0.04407 0.0233,-0.01574 0.0459,-0.0327 0.0675,-0.05059 0.0216,-0.01795 0.0422,-0.03696 0.0621,-0.05693 0.0199,-0.01987 0.0386,-0.04066 0.0565,-0.06241 0.0179,-0.0218 0.0346,-0.04434 0.0504,-0.06788 0.0157,-0.02336 0.0302,-0.04756 0.0437,-0.07271 0.0136,-0.02482 0.0258,-0.0505 0.037,-0.07693 0.011,-0.02646 0.0207,-0.05354 0.0293,-0.08106 0.008,-0.02764 0.0157,-0.05595 0.0216,-0.08459 0.006,-0.02877 0.0102,-0.05801 0.0133,-0.08772 0.004,-0.02976 0.005,-0.05981 0.005,-0.0903 v -4.091404 c 0,-0.02952 -0.002,-0.05889 -0.005,-0.08769 0.003,-0.02887 0.005,-0.05812 0.005,-0.08761 V 9.779595 c 0,-0.03059 -0.002,-0.06061 -0.005,-0.09033 -0.004,-0.02971 -0.007,-0.059 -0.0133,-0.08772 -0.006,-0.02875 -0.013,-0.05687 -0.0216,-0.08455 -0.008,-0.02773 -0.0183,-0.05471 -0.0293,-0.08106 -0.0111,-0.02635 -0.0234,-0.052 -0.037,-0.077 -0.0135,-0.025 -0.028,-0.04928 -0.0437,-0.07274 -0.0159,-0.02336 -0.0326,-0.0461 -0.0504,-0.06788 -0.0179,-0.02164 -0.0366,-0.04248 -0.0565,-0.06238 -0.0198,-0.02 -0.0405,-0.03882 -0.0621,-0.05682 -0.0217,-0.01792 -0.0442,-0.03478 -0.0675,-0.05065 -0.0233,-0.01582 -0.0474,-0.03047 -0.0722,-0.04404 -0.0249,-0.01348 -0.0504,-0.02599 -0.0766,-0.03707 -0.0263,-0.01115 -0.0532,-0.02097 -0.0807,-0.02952 -0.0275,-0.0085 -0.0555,-0.01574 -0.0841,-0.02163 -0.0285,-0.0059 -0.0576,-0.01022 -0.0871,-0.01332 -0.0296,-0.0036 -0.0596,-0.0045 -0.0899,-0.0045 z m 1.01715,1.895699 h 2.0345 c 0.0303,0 0.06,0.004 0.0885,0.009 0.0286,0.0057 0.0562,0.01441 0.0824,0.02554 0.0262,0.011 0.0511,0.02489 0.0744,0.04045 0.0234,0.01593 0.045,0.0338 0.0648,0.0538 0.0198,0.01988 0.0377,0.04178 0.0535,0.06517 0.0157,0.02333 0.0293,0.04841 0.0403,0.07482 0.011,0.02638 0.0196,0.05419 0.0254,0.08274 0.006,0.0288 0.009,0.05855 0.009,0.08906 v 2.045644 c 0,0.03056 -0.003,0.06035 -0.009,0.0891 -0.006,0.0288 -0.0144,0.05632 -0.0254,0.08286 -0.0112,0.0263 -0.0246,0.0513 -0.0403,0.07487 -0.0158,0.02333 -0.0337,0.04519 -0.0535,0.06501 -0.0198,0.02 -0.0414,0.03798 -0.0648,0.05377 -0.0233,0.01582 -0.0482,0.0294 -0.0744,0.04059 -0.0262,0.011 -0.0538,0.01972 -0.0824,0.02557 -0.0284,0.0057 -0.0582,0.009 -0.0885,0.009 h -2.0345 c -0.0303,0 -0.0599,-0.0029 -0.0886,-0.009 -0.0285,-0.0059 -0.0562,-0.01456 -0.0823,-0.02557 -0.0263,-0.01115 -0.0512,-0.02477 -0.0745,-0.04059 -0.0233,-0.01579 -0.0451,-0.03377 -0.0648,-0.05377 -0.0198,-0.01983 -0.0377,-0.0417 -0.0534,-0.06501 -0.0158,-0.02355 -0.0293,-0.04855 -0.0403,-0.07487 -0.0112,-0.02654 -0.0196,-0.05406 -0.0255,-0.08286 -0.006,-0.02875 -0.009,-0.05855 -0.009,-0.0891 V 11.2353 c 0,-0.03052 0.004,-0.06026 0.009,-0.08906 0.006,-0.02857 0.0144,-0.05637 0.0255,-0.08274 0.011,-0.02643 0.0245,-0.05151 0.0403,-0.07482 0.0157,-0.02339 0.0336,-0.04529 0.0534,-0.06517 0.0198,-0.01998 0.0416,-0.03787 0.0648,-0.0538 0.0233,-0.01554 0.0482,-0.02945 0.0745,-0.04045 0.0261,-0.01115 0.0538,-0.01977 0.0823,-0.02554 0.0286,-0.006 0.0583,-0.009 0.0886,-0.009 z" />
  </g>
</svg>
