<?xml version="1.0" encoding="UTF-8" standalone="no"?>
<!-- Created with Inkscape (http://www.inkscape.org/) -->

<svg
   width="90"
   height="90.000061"
   viewBox="0 0 30 30.00002"
   version="1.1"
   id="svg1"
   inkscape:version="1.3 (0e150ed6c4, 2023-07-21)"
   sodipodi:docname="fondo-menu-seccion-01.svg"
   xml:space="preserve"
   xmlns:inkscape="http://www.inkscape.org/namespaces/inkscape"
   xmlns:sodipodi="http://sodipodi.sourceforge.net/DTD/sodipodi-0.dtd"
   xmlns="http://www.w3.org/2000/svg"
   xmlns:svg="http://www.w3.org/2000/svg"><sodipodi:namedview
     id="namedview1"
     pagecolor="#ffffff"
     bordercolor="#000000"
     borderopacity="0.25"
     inkscape:showpageshadow="2"
     inkscape:pageopacity="0.0"
     inkscape:pagecheckerboard="0"
     inkscape:deskcolor="#d1d1d1"
     inkscape:document-units="px"
     inkscape:zoom="4"
     inkscape:cx="42.75"
     inkscape:cy="67.375"
     inkscape:window-width="1920"
     inkscape:window-height="1016"
     inkscape:window-x="0"
     inkscape:window-y="28"
     inkscape:window-maximized="1"
     inkscape:current-layer="g2241"
     showguides="true"><sodipodi:guide
       position="170.68977,168.2138"
       orientation="1,0"
       id="guide9"
       inkscape:locked="false" /></sodipodi:namedview><defs
     id="defs1" /><g
     inkscape:label="HOME-01"
     inkscape:groupmode="layer"
     id="g2241"
     style="display:inline"
     transform="translate(62.690098,-92.378868)"><path
       d="m -50.953028,92.378865 c -0.09792,0 -0.192844,0.01 -0.28477,0.03 -0.09226,0.02 -0.180854,0.04667 -0.265119,0.08232 -0.08426,0.03533 -0.164534,0.07932 -0.239806,0.129654 -0.07494,0.05066 -0.144551,0.108323 -0.208166,0.172316 -0.06395,0.06366 -0.121236,0.133654 -0.171862,0.208313 -0.05063,0.07499 -0.09459,0.155319 -0.129895,0.239977 -0.03564,0.08432 -0.06328,0.172983 -0.08193,0.264974 -0.01998,0.09199 -0.02665,0.186981 -0.02665,0.285306 v 6.551685 c 0,0.0973 0.01,0.19298 0.02665,0.28497 0.01998,0.092 0.04629,0.18099 0.08193,0.26532 0.0353,0.0843 0.07927,0.16464 0.129895,0.2393 0.05063,0.0753 0.107913,0.14532 0.171862,0.20898 0.06362,0.064 0.133226,0.12132 0.208166,0.17199 0.07527,0.0507 0.15554,0.0947 0.239806,0.12965 0.08426,0.0357 0.172861,0.0637 0.265119,0.0823 0.09193,0.02 0.186849,0.03 0.28477,0.03 h 6.547051 c 0.09759,0 0.192844,-0.01 0.28477,-0.03 0.09193,-0.02 0.180854,-0.0467 0.265119,-0.0823 0.08426,-0.035 0.164534,-0.079 0.239474,-0.12965 0.07494,-0.0507 0.145215,-0.10799 0.208831,-0.17199 0.06395,-0.0637 0.121235,-0.13365 0.171861,-0.20898 0.05063,-0.0747 0.09425,-0.15498 0.129563,-0.2393 0.03564,-0.0843 0.06328,-0.17333 0.08226,-0.26532 0.01998,-0.092 0.02998,-0.18764 0.02998,-0.28497 v -6.551685 c 0,-0.09832 -0.01,-0.193315 -0.02998,-0.285306 -0.01998,-0.09199 -0.04663,-0.180649 -0.08226,-0.264974 -0.0353,-0.08466 -0.07894,-0.164984 -0.129563,-0.239977 -0.05063,-0.07466 -0.107913,-0.144652 -0.171861,-0.208313 -0.06362,-0.06399 -0.133892,-0.121655 -0.208831,-0.172316 -0.07494,-0.05033 -0.155208,-0.09432 -0.239474,-0.129654 -0.08426,-0.03567 -0.173193,-0.06332 -0.265119,-0.08232 -0.09193,-0.02 -0.187182,-0.03 -0.28477,-0.03 z"
       style="fill:#000000;fill-opacity:1;stroke-width:0.374828;stroke-linejoin:bevel;paint-order:stroke fill markers;opacity:0.63"
       id="path408" /><path
       d="m -40.648676,92.378865 c -0.09825,0 -0.193177,0.01 -0.285103,0.03 -0.09193,0.02 -0.180522,0.04667 -0.264787,0.08232 -0.0846,0.03533 -0.164866,0.07932 -0.239806,0.129654 -0.07494,0.05066 -0.14455,0.108323 -0.208165,0.172316 -0.06428,0.06366 -0.121569,0.133654 -0.172195,0.208313 -0.05029,0.07499 -0.09425,0.155319 -0.129562,0.239977 -0.03564,0.08432 -0.06328,0.172983 -0.08226,0.264974 -0.01998,0.09199 -0.02998,0.186981 -0.02998,0.285306 v 6.551685 c 0,0.0973 0.01,0.19298 0.02998,0.28497 0.01998,0.092 0.04663,0.18099 0.08226,0.26532 0.0353,0.0843 0.07927,0.16464 0.129562,0.2393 0.05063,0.0753 0.107913,0.14532 0.172195,0.20898 0.06362,0.064 0.133225,0.12132 0.208165,0.17199 0.07494,0.0507 0.155208,0.0947 0.239806,0.12965 0.08426,0.0357 0.172861,0.0637 0.264787,0.0823 0.09193,0.02 0.186849,0.03 0.285103,0.03 h 6.547051 c 0.09725,0 0.192844,-0.01 0.28477,-0.03 0.09193,-0.02 0.180854,-0.0467 0.265119,-0.0823 0.08426,-0.035 0.164534,-0.079 0.23914,-0.12965 0.07494,-0.0507 0.145217,-0.10799 0.208832,-0.17199 0.06395,-0.0637 0.121236,-0.13365 0.171861,-0.20898 0.05063,-0.0747 0.09459,-0.15498 0.129563,-0.2393 0.03564,-0.0843 0.06362,-0.17333 0.08226,-0.26532 0.01998,-0.092 0.02998,-0.18764 0.02998,-0.28497 v -6.551685 c 0,-0.09832 -0.0067,-0.193315 -0.02998,-0.285306 -0.01998,-0.09199 -0.04663,-0.180649 -0.08226,-0.264974 -0.03497,-0.08466 -0.07894,-0.164984 -0.129563,-0.239977 -0.05063,-0.07466 -0.107913,-0.144652 -0.171861,-0.208313 -0.06362,-0.06399 -0.133892,-0.121655 -0.208832,-0.172316 -0.07461,-0.05033 -0.154875,-0.09432 -0.23914,-0.129654 -0.08426,-0.03567 -0.173193,-0.06332 -0.265119,-0.08232 -0.09193,-0.02 -0.187516,-0.03 -0.28477,-0.03 z"
       style="fill:#000000;fill-opacity:1;stroke-width:0.374828;stroke-linejoin:bevel;paint-order:stroke fill markers;opacity:0.63"
       id="path409" /><path
       d="m -61.257046,102.69052 c -0.09825,0 -0.193178,0.01 -0.285104,0.0267 -0.09193,0.02 -0.180521,0.0463 -0.264787,0.082 -0.0846,0.0353 -0.164867,0.0793 -0.239806,0.12999 -0.07494,0.0507 -0.144549,0.10832 -0.208165,0.17198 -0.06428,0.0637 -0.121569,0.13366 -0.172194,0.20865 -0.05029,0.075 -0.09425,0.15532 -0.129563,0.23964 -0.03564,0.0843 -0.06328,0.17298 -0.08226,0.26531 -0.01998,0.092 -0.02998,0.18698 -0.02998,0.2853 v 6.55136 c 0,0.0977 0.01,0.19331 0.02998,0.28497 0.01998,0.092 0.04663,0.18099 0.08226,0.26565 0.0353,0.084 0.07927,0.16431 0.129563,0.23931 0.05063,0.075 0.107913,0.14531 0.172194,0.20897 0.06362,0.064 0.133225,0.12132 0.208165,0.17199 0.07494,0.0507 0.155209,0.0943 0.239806,0.12966 0.08426,0.0357 0.172861,0.0633 0.264787,0.0823 0.09193,0.02 0.186849,0.03 0.285104,0.03 h 6.54705 c 0.09725,0 0.192844,-0.01 0.28477,-0.03 0.09193,-0.02 0.180854,-0.0467 0.265119,-0.0823 0.08426,-0.0353 0.164534,-0.079 0.239141,-0.12966 0.07494,-0.0507 0.145216,-0.10799 0.208832,-0.17199 0.06395,-0.0637 0.121235,-0.13398 0.171861,-0.20897 0.05063,-0.075 0.09459,-0.15532 0.129561,-0.23931 0.03564,-0.0847 0.06362,-0.17365 0.08226,-0.26565 0.01998,-0.0917 0.02998,-0.18731 0.02998,-0.28497 v -6.55136 c 0,-0.0983 -0.0067,-0.19331 -0.02998,-0.2853 -0.01998,-0.0923 -0.04663,-0.18098 -0.08226,-0.26531 -0.03497,-0.0843 -0.07894,-0.16465 -0.129561,-0.23964 -0.05063,-0.075 -0.107913,-0.14499 -0.171861,-0.20865 -0.06362,-0.0637 -0.133892,-0.12132 -0.208832,-0.17198 -0.07461,-0.0507 -0.154875,-0.0947 -0.239141,-0.12999 -0.08426,-0.0357 -0.173193,-0.0633 -0.265119,-0.082 -0.09193,-0.02 -0.187516,-0.0267 -0.28477,-0.0267 z"
       style="fill:#000000;fill-opacity:1;stroke-width:0.374828;stroke-linejoin:bevel;paint-order:stroke fill markers;opacity:0.63"
       id="path410" /><path
       d="m -50.953028,102.69052 c -0.09792,0 -0.192844,0.01 -0.28477,0.0267 -0.09226,0.02 -0.180854,0.0463 -0.265119,0.082 -0.08426,0.0353 -0.164534,0.0793 -0.239806,0.12999 -0.07494,0.0507 -0.144551,0.10832 -0.208166,0.17198 -0.06395,0.0637 -0.121236,0.13366 -0.171862,0.20865 -0.05063,0.075 -0.09459,0.15532 -0.129895,0.23964 -0.03564,0.0843 -0.06328,0.17298 -0.08193,0.26531 -0.01998,0.092 -0.02665,0.18698 -0.02665,0.2853 v 6.55136 c 0,0.0977 0.01,0.19331 0.02665,0.28497 0.01998,0.092 0.04629,0.18099 0.08193,0.26565 0.0353,0.084 0.07927,0.16431 0.129895,0.23931 0.05063,0.075 0.107913,0.14531 0.171862,0.20897 0.06362,0.064 0.133226,0.12132 0.208166,0.17199 0.07527,0.0507 0.15554,0.0943 0.239806,0.12966 0.08426,0.0357 0.172861,0.0633 0.265119,0.0823 0.09193,0.02 0.186849,0.03 0.28477,0.03 h 6.547051 c 0.09759,0 0.192844,-0.01 0.28477,-0.03 0.09193,-0.02 0.180854,-0.0467 0.265119,-0.0823 0.08426,-0.0353 0.164534,-0.079 0.239474,-0.12966 0.07494,-0.0507 0.145215,-0.10799 0.208831,-0.17199 0.06395,-0.0637 0.121235,-0.13398 0.171861,-0.20897 0.05063,-0.075 0.09425,-0.15532 0.129563,-0.23931 0.03564,-0.0847 0.06328,-0.17365 0.08226,-0.26565 0.01998,-0.0917 0.02998,-0.18731 0.02998,-0.28497 v -6.55136 c 0,-0.0983 -0.01,-0.19331 -0.02998,-0.2853 -0.01998,-0.0923 -0.04663,-0.18098 -0.08226,-0.26531 -0.0353,-0.0843 -0.07894,-0.16465 -0.129563,-0.23964 -0.05063,-0.075 -0.107913,-0.14499 -0.171861,-0.20865 -0.06362,-0.0637 -0.133892,-0.12132 -0.208831,-0.17198 -0.07494,-0.0507 -0.155208,-0.0947 -0.239474,-0.12999 -0.08426,-0.0357 -0.173193,-0.0633 -0.265119,-0.082 -0.09193,-0.02 -0.187182,-0.0267 -0.28477,-0.0267 z"
       style="fill:#000000;fill-opacity:1;stroke-width:0.374828;stroke-linejoin:bevel;paint-order:stroke fill markers;opacity:0.63"
       id="path411" /><path
       d="m -40.648676,102.69052 c -0.09825,0 -0.193177,0.01 -0.285103,0.0267 -0.09193,0.02 -0.180522,0.0463 -0.264787,0.082 -0.0846,0.0353 -0.164866,0.0793 -0.239806,0.12999 -0.07494,0.0507 -0.14455,0.10832 -0.208165,0.17198 -0.06428,0.0637 -0.121569,0.13366 -0.172195,0.20865 -0.05029,0.075 -0.09425,0.15532 -0.129562,0.23964 -0.03564,0.0843 -0.06328,0.17298 -0.08226,0.26531 -0.01998,0.092 -0.02998,0.18698 -0.02998,0.2853 v 6.55136 c 0,0.0977 0.01,0.19331 0.02998,0.28497 0.01998,0.092 0.04663,0.18099 0.08226,0.26565 0.0353,0.084 0.07927,0.16431 0.129562,0.23931 0.05063,0.075 0.107913,0.14531 0.172195,0.20897 0.06362,0.064 0.133225,0.12132 0.208165,0.17199 0.07494,0.0507 0.155208,0.0943 0.239806,0.12966 0.08426,0.0357 0.172861,0.0633 0.264787,0.0823 0.09193,0.02 0.186849,0.03 0.285103,0.03 h 6.547051 c 0.09725,0 0.192844,-0.01 0.28477,-0.03 0.09193,-0.02 0.180854,-0.0467 0.265119,-0.0823 0.08426,-0.0353 0.164534,-0.079 0.23914,-0.12966 0.07494,-0.0507 0.145217,-0.10799 0.208832,-0.17199 0.06395,-0.0637 0.121236,-0.13398 0.171861,-0.20897 0.05063,-0.075 0.09459,-0.15532 0.129563,-0.23931 0.03564,-0.0847 0.06362,-0.17365 0.08226,-0.26565 0.01998,-0.0917 0.02998,-0.18731 0.02998,-0.28497 v -6.55136 c 0,-0.0983 -0.0067,-0.19331 -0.02998,-0.2853 -0.01998,-0.0923 -0.04663,-0.18098 -0.08226,-0.26531 -0.03497,-0.0843 -0.07894,-0.16465 -0.129563,-0.23964 -0.05063,-0.075 -0.107913,-0.14499 -0.171861,-0.20865 -0.06362,-0.0637 -0.133892,-0.12132 -0.208832,-0.17198 -0.07461,-0.0507 -0.154875,-0.0947 -0.23914,-0.12999 -0.08426,-0.0357 -0.173193,-0.0633 -0.265119,-0.082 -0.09193,-0.02 -0.187516,-0.0267 -0.28477,-0.0267 z"
       style="fill:#000000;fill-opacity:1;stroke-width:0.374828;stroke-linejoin:bevel;paint-order:stroke fill markers;opacity:0.63"
       id="path412" /><path
       d="m -61.257046,113.00184 c -0.09825,0 -0.193178,0.01 -0.285104,0.03 -0.09193,0.02 -0.180521,0.0467 -0.264787,0.0823 -0.0846,0.0353 -0.164867,0.0793 -0.239806,0.12966 -0.07494,0.0507 -0.144549,0.10832 -0.208165,0.17231 -0.06428,0.0637 -0.121569,0.13366 -0.172194,0.20832 -0.05029,0.075 -0.09425,0.15532 -0.129563,0.23998 -0.03564,0.0843 -0.06328,0.17298 -0.08226,0.26497 -0.01998,0.092 -0.02998,0.18698 -0.02998,0.2853 v 6.5517 c 0,0.0973 0.01,0.19298 0.02998,0.28498 0.01998,0.092 0.04663,0.18098 0.08226,0.2653 0.0353,0.0843 0.07927,0.16465 0.129563,0.23931 0.05063,0.0753 0.107913,0.14532 0.172194,0.20898 0.06362,0.064 0.133225,0.12132 0.208165,0.17198 0.07494,0.0507 0.155209,0.0947 0.239806,0.12966 0.08426,0.0357 0.172861,0.0637 0.264787,0.0823 0.09193,0.02 0.186849,0.03 0.285104,0.03 h 6.54705 c 0.09725,0 0.192844,-0.01 0.28477,-0.03 0.09193,-0.02 0.180854,-0.0467 0.265119,-0.0823 0.08426,-0.035 0.164534,-0.079 0.239141,-0.12966 0.07494,-0.0507 0.145216,-0.10799 0.208832,-0.17198 0.06395,-0.0637 0.121235,-0.13365 0.171861,-0.20898 0.05063,-0.0747 0.09459,-0.15499 0.129561,-0.23931 0.03564,-0.0843 0.06362,-0.17331 0.08226,-0.2653 0.01998,-0.092 0.02998,-0.18766 0.02998,-0.28498 v -6.5517 c 0,-0.0983 -0.0067,-0.19331 -0.02998,-0.2853 -0.01998,-0.092 -0.04663,-0.18065 -0.08226,-0.26497 -0.03497,-0.0847 -0.07894,-0.16499 -0.129561,-0.23998 -0.05063,-0.0747 -0.107913,-0.14465 -0.171861,-0.20832 -0.06362,-0.064 -0.133892,-0.12165 -0.208832,-0.17231 -0.07461,-0.0503 -0.154875,-0.0943 -0.239141,-0.12966 -0.08426,-0.0357 -0.173193,-0.0633 -0.265119,-0.0823 -0.09193,-0.02 -0.187516,-0.03 -0.28477,-0.03 z"
       style="fill:#000000;fill-opacity:1;stroke-width:0.374828;stroke-linejoin:bevel;paint-order:stroke fill markers;opacity:0.63"
       id="path413" /><path
       d="m -50.953028,113.00184 c -0.09792,0 -0.192844,0.01 -0.28477,0.03 -0.09226,0.02 -0.180854,0.0467 -0.265119,0.0823 -0.08426,0.0353 -0.164534,0.0793 -0.239806,0.12966 -0.07494,0.0507 -0.144551,0.10832 -0.208166,0.17231 -0.06395,0.0637 -0.121236,0.13366 -0.171862,0.20832 -0.05063,0.075 -0.09459,0.15532 -0.129895,0.23998 -0.03564,0.0843 -0.06328,0.17298 -0.08193,0.26497 -0.01998,0.092 -0.02665,0.18698 -0.02665,0.2853 v 6.5517 c 0,0.0973 0.01,0.19298 0.02665,0.28498 0.01998,0.092 0.04629,0.18098 0.08193,0.2653 0.0353,0.0843 0.07927,0.16465 0.129895,0.23931 0.05063,0.0753 0.107913,0.14532 0.171862,0.20898 0.06362,0.064 0.133226,0.12132 0.208166,0.17198 0.07527,0.0507 0.15554,0.0947 0.239806,0.12966 0.08426,0.0357 0.172861,0.0637 0.265119,0.0823 0.09193,0.02 0.186849,0.03 0.28477,0.03 h 6.547051 c 0.09759,0 0.192844,-0.01 0.28477,-0.03 0.09193,-0.02 0.180854,-0.0467 0.265119,-0.0823 0.08426,-0.035 0.164534,-0.079 0.239474,-0.12966 0.07494,-0.0507 0.145215,-0.10799 0.208831,-0.17198 0.06395,-0.0637 0.121235,-0.13365 0.171861,-0.20898 0.05063,-0.0747 0.09425,-0.15499 0.129563,-0.23931 0.03564,-0.0843 0.06328,-0.17331 0.08226,-0.2653 0.01998,-0.092 0.02998,-0.18766 0.02998,-0.28498 v -6.5517 c 0,-0.0983 -0.01,-0.19331 -0.02998,-0.2853 -0.01998,-0.092 -0.04663,-0.18065 -0.08226,-0.26497 -0.0353,-0.0847 -0.07894,-0.16499 -0.129563,-0.23998 -0.05063,-0.0747 -0.107913,-0.14465 -0.171861,-0.20832 -0.06362,-0.064 -0.133892,-0.12165 -0.208831,-0.17231 -0.07494,-0.0503 -0.155208,-0.0943 -0.239474,-0.12966 -0.08426,-0.0357 -0.173193,-0.0633 -0.265119,-0.0823 -0.09193,-0.02 -0.187182,-0.03 -0.28477,-0.03 z"
       style="fill:#000000;fill-opacity:1;stroke-width:0.374828;stroke-linejoin:bevel;paint-order:stroke fill markers;opacity:0.63"
       id="path414" /><path
       d="m -40.648676,113.00184 c -0.09825,0 -0.193177,0.01 -0.285103,0.03 -0.09193,0.02 -0.180522,0.0467 -0.264787,0.0823 -0.0846,0.0353 -0.164866,0.0793 -0.239806,0.12966 -0.07494,0.0507 -0.14455,0.10832 -0.208165,0.17231 -0.06428,0.0637 -0.121569,0.13366 -0.172195,0.20832 -0.05029,0.075 -0.09425,0.15532 -0.129562,0.23998 -0.03564,0.0843 -0.06328,0.17298 -0.08226,0.26497 -0.01998,0.092 -0.02998,0.18698 -0.02998,0.2853 v 6.5517 c 0,0.0973 0.01,0.19298 0.02998,0.28498 0.01998,0.092 0.04663,0.18098 0.08226,0.2653 0.0353,0.0843 0.07927,0.16465 0.129562,0.23931 0.05063,0.0753 0.107913,0.14532 0.172195,0.20898 0.06362,0.064 0.133225,0.12132 0.208165,0.17198 0.07494,0.0507 0.155208,0.0947 0.239806,0.12966 0.08426,0.0357 0.172861,0.0637 0.264787,0.0823 0.09193,0.02 0.186849,0.03 0.285103,0.03 h 6.547051 c 0.09725,0 0.192844,-0.01 0.28477,-0.03 0.09193,-0.02 0.180854,-0.0467 0.265119,-0.0823 0.08426,-0.035 0.164534,-0.079 0.23914,-0.12966 0.07494,-0.0507 0.145217,-0.10799 0.208832,-0.17198 0.06395,-0.0637 0.121236,-0.13365 0.171861,-0.20898 0.05063,-0.0747 0.09459,-0.15499 0.129563,-0.23931 0.03564,-0.0843 0.06362,-0.17331 0.08226,-0.2653 0.01998,-0.092 0.02998,-0.18766 0.02998,-0.28498 v -6.5517 c 0,-0.0983 -0.0067,-0.19331 -0.02998,-0.2853 -0.01998,-0.092 -0.04663,-0.18065 -0.08226,-0.26497 -0.03497,-0.0847 -0.07894,-0.16499 -0.129563,-0.23998 -0.05063,-0.0747 -0.107913,-0.14465 -0.171861,-0.20832 -0.06362,-0.064 -0.133892,-0.12165 -0.208832,-0.17231 -0.07461,-0.0503 -0.154875,-0.0943 -0.23914,-0.12966 -0.08426,-0.0357 -0.173193,-0.0633 -0.265119,-0.0823 -0.09193,-0.02 -0.187516,-0.03 -0.28477,-0.03 z"
       style="fill:#000000;fill-opacity:1;stroke-width:0.374828;stroke-linejoin:bevel;paint-order:stroke fill markers;opacity:0.63"
       id="path415" /></g></svg>
